# xmcd
#
# Track frame offsets: 
#        150
#        4690
#        24666
#        52758
#        69500
#        90919
#        120884
#        140340
#        165813
#        189694
#        205626
#        227178
#        250695
#
# Disc length: 3731 seconds
#
# Revision: 0
# Processed by: cddbd v1.5.2PL0 Copyright (c) Steve Scherf et al.
# Submitted via: ExactAudioCopy v1.0b3
#
DISCID=910e910d
DTITLE=Various Artist - Nhac Vang
DYEAR=1985
DGENRE=
TTITLE0=Minh Van - Loi gioi thieu
TTITLE1=Luu Hong - Mua rung
TTITLE2=Elvis Phuong - Noi long nguoi di
TTITLE3=Julie - Thu ca
TTITLE4=Thanh Thuy - Bai huong ca vo tan
TTITLE5=Khanh Ly - Mot mai gia tu vu khi
TTITLE6=Ngoc Minh - O me ly
TTITLE7=Le Uyen, Phuong - Hay ngoi xuong day
TTITLE8=Thai Hien - Mua thu cho em
TTITLE9=Nhu Mai - Tinh anh linh chien
TTITLE10=Le Thu - Buoc chan chieu chu nhat
TTITLE11=Mai Huong - Tieng song Huong
TTITLE12=Duy Quang - Nghin trung xa cach
EXTD=
EXTT0=
EXTT1=
EXTT2=
EXTT3=
EXTT4=
EXTT5=
EXTT6=
EXTT7=
EXTT8=
EXTT9=
EXTT10=
EXTT11=
EXTT12=
PLAYORDER=
